%
M48
M72
T01C0.0120
T02C0.0276
T03C0.0315
T04C0.0400
%
T01
X4034Y5375
X5485Y4765
X6505Y5948
X7335Y6565
X6575Y7313
X6155Y7588
X5925Y7831
X5701Y7313
X5895Y7083
X6155Y6875
X6902Y8052
X8093Y7875
X8525Y8375
X9225Y8325
X9506Y7875
X10325Y7925
X9985Y6565
X9615Y6435
X10425Y5125
X8335Y5215
X4025Y9075
X4025Y9466
X6425Y9883
X7375Y9875
X8175Y9847
X10275Y10237
X14225Y9466
X14225Y9075
X16125Y7831
X16355Y7588
X16775Y7313
X16355Y6875
X16095Y7083
X15901Y7313
X17102Y8052
X18293Y7875
X18725Y8375
X19425Y8325
X19706Y7875
X20525Y7925
X20185Y6565
X19815Y6435
X20625Y5125
X18535Y5215
X17535Y6565
X16705Y5948
X15685Y4765
X14234Y5375
X16625Y9883
X17575Y9875
X18375Y9847
X20475Y10237
X24425Y9466
X24425Y9075
X26325Y7831
X26555Y7588
X26975Y7313
X26555Y6875
X26295Y7083
X26101Y7313
X27302Y8052
X28493Y7875
X28925Y8375
X29625Y8325
X29906Y7875
X30725Y7925
X30385Y6565
X30015Y6435
X30825Y5125
X28735Y5215
X27735Y6565
X26905Y5948
X25885Y4765
X24434Y5375
X26825Y9883
X27775Y9875
X28575Y9847
X30675Y10237
X30825Y16175
X30015Y17485
X30385Y17615
X29906Y18925
X29625Y19375
X28925Y19425
X28493Y18925
X27302Y19102
X26975Y18363
X26555Y18638
X26325Y18881
X26101Y18363
X26295Y18133
X26555Y17925
X26905Y16998
X27735Y17615
X28735Y16265
X25885Y15815
X24434Y16425
X24425Y20125
X24425Y20516
X26825Y20933
X27775Y20925
X28575Y20897
X30675Y21287
X30725Y18975
X25885Y26865
X26905Y28048
X26555Y28975
X26295Y29183
X26101Y29413
X26555Y29688
X26325Y29931
X26975Y29413
X27302Y30152
X28493Y29975
X28925Y30475
X29625Y30425
X29906Y29975
X30725Y30025
X30385Y28665
X30015Y28535
X30825Y27225
X28735Y27315
X27735Y28665
X27775Y31975
X28575Y31947
X26825Y31983
X24425Y31566
X24425Y31175
X24434Y27475
X20625Y27225
X19815Y28535
X20185Y28665
X19706Y29975
X19425Y30425
X18725Y30475
X18293Y29975
X17102Y30152
X16775Y29413
X16355Y29688
X16125Y29931
X15901Y29413
X16095Y29183
X16355Y28975
X16705Y28048
X17535Y28665
X18535Y27315
X15685Y26865
X14234Y27475
X14225Y31175
X14225Y31566
X16625Y31983
X17575Y31975
X18375Y31947
X20475Y32337
X20525Y30025
X20475Y21287
X18375Y20897
X17575Y20925
X16625Y20933
X18725Y19425
X18293Y18925
X17102Y19102
X16775Y18363
X16355Y18638
X16125Y18881
X15901Y18363
X16095Y18133
X16355Y17925
X16705Y16998
X17535Y17615
X18535Y16265
X19815Y17485
X20185Y17615
X19706Y18925
X19425Y19375
X20525Y18975
X20625Y16175
X15685Y15815
X14234Y16425
X14225Y20125
X14225Y20516
X10275Y21287
X9225Y19375
X9506Y18925
X10325Y18975
X9985Y17615
X9615Y17485
X10425Y16175
X8335Y16265
X7335Y17615
X6505Y16998
X6155Y17925
X5895Y18133
X5701Y18363
X6155Y18638
X5925Y18881
X6575Y18363
X6902Y19102
X8093Y18925
X8525Y19425
X8175Y20897
X7375Y20925
X6425Y20933
X4025Y20516
X4025Y20125
X4034Y16425
X5485Y15815
X5485Y26865
X6505Y28048
X6155Y28975
X5895Y29183
X5701Y29413
X6155Y29688
X5925Y29931
X6575Y29413
X7335Y28665
X8093Y29975
X8525Y30475
X9225Y30425
X9506Y29975
X10325Y30025
X9985Y28665
X9615Y28535
X10425Y27225
X8335Y27315
X6902Y30152
X7375Y31975
X8175Y31947
X6425Y31983
X4025Y31566
X4025Y31175
X4034Y27475
X10275Y32337
X30675Y32337
T02
X28025Y25625
X27025Y25625
X26025Y25625
X17825Y25625
X16825Y25625
X15825Y25625
X7625Y25625
X6625Y25625
X5625Y25625
X5625Y14575
X6625Y14575
X7625Y14575
X15825Y14575
X16825Y14575
X17825Y14575
X26025Y14575
X27025Y14575
X28025Y14575
X28025Y3525
X27025Y3525
X26025Y3525
X17825Y3525
X16825Y3525
X15825Y3525
X7625Y3525
X6625Y3525
X5625Y3525
T03
X9125Y3375
X10125Y3375
X19325Y3375
X20325Y3375
X29525Y3375
X30525Y3375
X30525Y14425
X29525Y14425
X20325Y14425
X19325Y14425
X10125Y14425
X9125Y14425
X9125Y25475
X10125Y25475
X19325Y25475
X20325Y25475
X29525Y25475
X30525Y25475
T04
X3375Y3375
X3375Y4375
X3375Y5375
X3375Y6375
X3375Y7375
X3375Y8375
X3375Y14425
X3375Y15425
X3375Y16425
X3375Y17425
X3375Y18425
X3375Y19425
X3375Y25475
X3375Y26475
X3375Y27475
X3375Y28475
X3375Y29475
X3375Y30475
X12375Y30475
X12375Y29475
X12375Y28475
X12375Y27475
X12375Y26475
X12375Y25475
X13575Y25475
X13575Y26475
X13575Y27475
X13575Y28475
X13575Y29475
X13575Y30475
X12375Y31475
X22575Y31475
X22575Y30475
X22575Y29475
X22575Y28475
X22575Y27475
X22575Y26475
X22575Y25475
X23775Y25475
X23775Y26475
X23775Y27475
X23775Y28475
X23775Y29475
X23775Y30475
X32775Y30475
X32775Y29475
X32775Y28475
X32775Y27475
X32775Y26475
X32775Y25475
X32775Y20425
X32775Y19425
X32775Y18425
X32775Y17425
X32775Y16425
X32775Y15425
X32775Y14425
X32775Y9375
X32775Y8375
X32775Y7375
X32775Y6375
X32775Y5375
X32775Y4375
X32775Y3375
X23775Y3375
X23775Y4375
X23775Y5375
X23775Y6375
X23775Y7375
X23775Y8375
X22575Y8375
X22575Y7375
X22575Y6375
X22575Y5375
X22575Y4375
X22575Y3375
X22575Y9375
X22575Y14425
X22575Y15425
X22575Y16425
X22575Y17425
X22575Y18425
X22575Y19425
X22575Y20425
X23775Y19425
X23775Y18425
X23775Y17425
X23775Y16425
X23775Y15425
X23775Y14425
X13575Y14425
X13575Y15425
X13575Y16425
X13575Y17425
X13575Y18425
X13575Y19425
X12375Y19425
X12375Y18425
X12375Y17425
X12375Y16425
X12375Y15425
X12375Y14425
X12375Y9375
X12375Y8375
X12375Y7375
X12375Y6375
X12375Y5375
X12375Y4375
X12375Y3375
X13575Y3375
X13575Y4375
X13575Y5375
X13575Y6375
X13575Y7375
X13575Y8375
X12375Y20425
X32775Y31475
M30
