G75*
%MOIN*%
%OFA0B0*%
%FSLAX25Y25*%
%IPPOS*%
%LPD*%
%AMOC8*
5,1,8,0,0,1.08239X$1,22.5*
%
%ADD10R,0.03937X0.04331*%
%ADD11C,0.01181*%
%ADD12R,0.03543X0.03150*%
%ADD13R,0.03543X0.03937*%
%ADD14R,0.02480X0.03268*%
D10*
X0059250Y0087904D03*
X0065750Y0087904D03*
X0072750Y0087904D03*
X0072750Y0094596D03*
X0065750Y0094596D03*
X0059250Y0094596D03*
X0085250Y0094596D03*
X0085250Y0087904D03*
X0092250Y0087904D03*
X0098750Y0087904D03*
X0098750Y0094596D03*
X0092250Y0094596D03*
X0094250Y0052096D03*
X0100250Y0052096D03*
X0100250Y0045404D03*
X0094250Y0045404D03*
X0161250Y0087904D03*
X0167750Y0087904D03*
X0167750Y0094596D03*
X0161250Y0094596D03*
X0174750Y0094596D03*
X0174750Y0087904D03*
X0187250Y0087904D03*
X0187250Y0094596D03*
X0194250Y0094596D03*
X0200750Y0094596D03*
X0200750Y0087904D03*
X0194250Y0087904D03*
X0196250Y0052096D03*
X0202250Y0052096D03*
X0202250Y0045404D03*
X0196250Y0045404D03*
X0263250Y0087904D03*
X0269750Y0087904D03*
X0269750Y0094596D03*
X0263250Y0094596D03*
X0276750Y0094596D03*
X0276750Y0087904D03*
X0289250Y0087904D03*
X0296250Y0087904D03*
X0302750Y0087904D03*
X0302750Y0094596D03*
X0296250Y0094596D03*
X0289250Y0094596D03*
X0298250Y0052096D03*
X0304250Y0052096D03*
X0304250Y0045404D03*
X0298250Y0045404D03*
X0298250Y0155904D03*
X0304250Y0155904D03*
X0304250Y0162596D03*
X0298250Y0162596D03*
X0296250Y0198404D03*
X0289250Y0198404D03*
X0289250Y0205096D03*
X0296250Y0205096D03*
X0302750Y0205096D03*
X0302750Y0198404D03*
X0276750Y0198404D03*
X0276750Y0205096D03*
X0269750Y0205096D03*
X0263250Y0205096D03*
X0263250Y0198404D03*
X0269750Y0198404D03*
X0200750Y0198404D03*
X0194250Y0198404D03*
X0194250Y0205096D03*
X0200750Y0205096D03*
X0187250Y0205096D03*
X0187250Y0198404D03*
X0174750Y0198404D03*
X0174750Y0205096D03*
X0167750Y0205096D03*
X0161250Y0205096D03*
X0161250Y0198404D03*
X0167750Y0198404D03*
X0196250Y0162596D03*
X0202250Y0162596D03*
X0202250Y0155904D03*
X0196250Y0155904D03*
X0100250Y0155904D03*
X0094250Y0155904D03*
X0094250Y0162596D03*
X0100250Y0162596D03*
X0098750Y0198404D03*
X0092250Y0198404D03*
X0092250Y0205096D03*
X0098750Y0205096D03*
X0085250Y0205096D03*
X0085250Y0198404D03*
X0072750Y0198404D03*
X0065750Y0198404D03*
X0059250Y0198404D03*
X0059250Y0205096D03*
X0065750Y0205096D03*
X0072750Y0205096D03*
X0094250Y0266404D03*
X0094250Y0273096D03*
X0100250Y0273096D03*
X0100250Y0266404D03*
X0098750Y0308904D03*
X0092250Y0308904D03*
X0092250Y0315596D03*
X0098750Y0315596D03*
X0085250Y0315596D03*
X0085250Y0308904D03*
X0072750Y0308904D03*
X0072750Y0315596D03*
X0065750Y0315596D03*
X0065750Y0308904D03*
X0059250Y0308904D03*
X0059250Y0315596D03*
X0161250Y0315596D03*
X0161250Y0308904D03*
X0167750Y0308904D03*
X0167750Y0315596D03*
X0174750Y0315596D03*
X0174750Y0308904D03*
X0187250Y0308904D03*
X0187250Y0315596D03*
X0194250Y0315596D03*
X0194250Y0308904D03*
X0200750Y0308904D03*
X0200750Y0315596D03*
X0202250Y0273096D03*
X0196250Y0273096D03*
X0196250Y0266404D03*
X0202250Y0266404D03*
X0263250Y0308904D03*
X0269750Y0308904D03*
X0269750Y0315596D03*
X0263250Y0315596D03*
X0276750Y0315596D03*
X0276750Y0308904D03*
X0289250Y0308904D03*
X0289250Y0315596D03*
X0296250Y0315596D03*
X0296250Y0308904D03*
X0302750Y0308904D03*
X0302750Y0315596D03*
X0304250Y0273096D03*
X0298250Y0273096D03*
X0298250Y0266404D03*
X0304250Y0266404D03*
D11*
X0284128Y0307419D02*
X0281372Y0307419D01*
X0281372Y0310175D01*
X0284128Y0310175D01*
X0284128Y0307419D01*
X0284128Y0308599D02*
X0281372Y0308599D01*
X0281372Y0309779D02*
X0284128Y0309779D01*
X0284128Y0314325D02*
X0281372Y0314325D01*
X0281372Y0317081D01*
X0284128Y0317081D01*
X0284128Y0314325D01*
X0284128Y0315505D02*
X0281372Y0315505D01*
X0281372Y0316685D02*
X0284128Y0316685D01*
X0182128Y0314325D02*
X0179372Y0314325D01*
X0179372Y0317081D01*
X0182128Y0317081D01*
X0182128Y0314325D01*
X0182128Y0315505D02*
X0179372Y0315505D01*
X0179372Y0316685D02*
X0182128Y0316685D01*
X0182128Y0307419D02*
X0179372Y0307419D01*
X0179372Y0310175D01*
X0182128Y0310175D01*
X0182128Y0307419D01*
X0182128Y0308599D02*
X0179372Y0308599D01*
X0179372Y0309779D02*
X0182128Y0309779D01*
X0080128Y0307419D02*
X0077372Y0307419D01*
X0077372Y0310175D01*
X0080128Y0310175D01*
X0080128Y0307419D01*
X0080128Y0308599D02*
X0077372Y0308599D01*
X0077372Y0309779D02*
X0080128Y0309779D01*
X0080128Y0314325D02*
X0077372Y0314325D01*
X0077372Y0317081D01*
X0080128Y0317081D01*
X0080128Y0314325D01*
X0080128Y0315505D02*
X0077372Y0315505D01*
X0077372Y0316685D02*
X0080128Y0316685D01*
X0080128Y0203825D02*
X0077372Y0203825D01*
X0077372Y0206581D01*
X0080128Y0206581D01*
X0080128Y0203825D01*
X0080128Y0205005D02*
X0077372Y0205005D01*
X0077372Y0206185D02*
X0080128Y0206185D01*
X0080128Y0196919D02*
X0077372Y0196919D01*
X0077372Y0199675D01*
X0080128Y0199675D01*
X0080128Y0196919D01*
X0080128Y0198099D02*
X0077372Y0198099D01*
X0077372Y0199279D02*
X0080128Y0199279D01*
X0179372Y0196919D02*
X0182128Y0196919D01*
X0179372Y0196919D02*
X0179372Y0199675D01*
X0182128Y0199675D01*
X0182128Y0196919D01*
X0182128Y0198099D02*
X0179372Y0198099D01*
X0179372Y0199279D02*
X0182128Y0199279D01*
X0182128Y0203825D02*
X0179372Y0203825D01*
X0179372Y0206581D01*
X0182128Y0206581D01*
X0182128Y0203825D01*
X0182128Y0205005D02*
X0179372Y0205005D01*
X0179372Y0206185D02*
X0182128Y0206185D01*
X0281372Y0203825D02*
X0284128Y0203825D01*
X0281372Y0203825D02*
X0281372Y0206581D01*
X0284128Y0206581D01*
X0284128Y0203825D01*
X0284128Y0205005D02*
X0281372Y0205005D01*
X0281372Y0206185D02*
X0284128Y0206185D01*
X0284128Y0196919D02*
X0281372Y0196919D01*
X0281372Y0199675D01*
X0284128Y0199675D01*
X0284128Y0196919D01*
X0284128Y0198099D02*
X0281372Y0198099D01*
X0281372Y0199279D02*
X0284128Y0199279D01*
X0284128Y0093325D02*
X0281372Y0093325D01*
X0281372Y0096081D01*
X0284128Y0096081D01*
X0284128Y0093325D01*
X0284128Y0094505D02*
X0281372Y0094505D01*
X0281372Y0095685D02*
X0284128Y0095685D01*
X0284128Y0086419D02*
X0281372Y0086419D01*
X0281372Y0089175D01*
X0284128Y0089175D01*
X0284128Y0086419D01*
X0284128Y0087599D02*
X0281372Y0087599D01*
X0281372Y0088779D02*
X0284128Y0088779D01*
X0182128Y0086419D02*
X0179372Y0086419D01*
X0179372Y0089175D01*
X0182128Y0089175D01*
X0182128Y0086419D01*
X0182128Y0087599D02*
X0179372Y0087599D01*
X0179372Y0088779D02*
X0182128Y0088779D01*
X0182128Y0093325D02*
X0179372Y0093325D01*
X0179372Y0096081D01*
X0182128Y0096081D01*
X0182128Y0093325D01*
X0182128Y0094505D02*
X0179372Y0094505D01*
X0179372Y0095685D02*
X0182128Y0095685D01*
X0080128Y0093325D02*
X0077372Y0093325D01*
X0077372Y0096081D01*
X0080128Y0096081D01*
X0080128Y0093325D01*
X0080128Y0094505D02*
X0077372Y0094505D01*
X0077372Y0095685D02*
X0080128Y0095685D01*
X0080128Y0086419D02*
X0077372Y0086419D01*
X0077372Y0089175D01*
X0080128Y0089175D01*
X0080128Y0086419D01*
X0080128Y0087599D02*
X0077372Y0087599D01*
X0077372Y0088779D02*
X0080128Y0088779D01*
D12*
X0087687Y0052490D03*
X0087687Y0045010D03*
X0079419Y0048750D03*
X0181419Y0048750D03*
X0189687Y0045010D03*
X0189687Y0052490D03*
X0283419Y0048750D03*
X0291687Y0045010D03*
X0291687Y0052490D03*
X0291687Y0155510D03*
X0283419Y0159250D03*
X0291687Y0162990D03*
X0189687Y0162990D03*
X0189687Y0155510D03*
X0181419Y0159250D03*
X0087687Y0155510D03*
X0087687Y0162990D03*
X0079419Y0159250D03*
X0087687Y0266010D03*
X0087687Y0273490D03*
X0079419Y0269750D03*
X0181419Y0269750D03*
X0189687Y0266010D03*
X0189687Y0273490D03*
X0283419Y0269750D03*
X0291687Y0266010D03*
X0291687Y0273490D03*
D13*
X0292179Y0286600D03*
X0292179Y0292900D03*
X0308321Y0292900D03*
X0308321Y0286600D03*
X0273321Y0286600D03*
X0273321Y0292900D03*
X0257179Y0292900D03*
X0257179Y0286600D03*
X0206321Y0286600D03*
X0206321Y0292900D03*
X0190179Y0292900D03*
X0190179Y0286600D03*
X0171321Y0286600D03*
X0171321Y0292900D03*
X0155179Y0292900D03*
X0155179Y0286600D03*
X0104321Y0286600D03*
X0104321Y0292900D03*
X0088179Y0292900D03*
X0088179Y0286600D03*
X0069321Y0286600D03*
X0069321Y0292900D03*
X0053179Y0292900D03*
X0053179Y0286600D03*
X0053179Y0182400D03*
X0053179Y0176100D03*
X0069321Y0176100D03*
X0069321Y0182400D03*
X0088179Y0182400D03*
X0088179Y0176100D03*
X0104321Y0176100D03*
X0104321Y0182400D03*
X0155179Y0182400D03*
X0155179Y0176100D03*
X0171321Y0176100D03*
X0171321Y0182400D03*
X0190179Y0182400D03*
X0190179Y0176100D03*
X0206321Y0176100D03*
X0206321Y0182400D03*
X0257179Y0182400D03*
X0257179Y0176100D03*
X0273321Y0176100D03*
X0273321Y0182400D03*
X0292179Y0182400D03*
X0292179Y0176100D03*
X0308321Y0176100D03*
X0308321Y0182400D03*
X0308321Y0071900D03*
X0308321Y0065600D03*
X0292179Y0065600D03*
X0292179Y0071900D03*
X0273321Y0071900D03*
X0273321Y0065600D03*
X0257179Y0065600D03*
X0257179Y0071900D03*
X0206321Y0071900D03*
X0206321Y0065600D03*
X0190179Y0065600D03*
X0190179Y0071900D03*
X0171321Y0071900D03*
X0171321Y0065600D03*
X0155179Y0065600D03*
X0155179Y0071900D03*
X0104321Y0071900D03*
X0104321Y0065600D03*
X0088179Y0065600D03*
X0088179Y0071900D03*
X0069321Y0071900D03*
X0069321Y0065600D03*
X0053179Y0065600D03*
X0053179Y0071900D03*
D14*
X0056722Y0053750D03*
X0065778Y0053750D03*
X0158722Y0053750D03*
X0167778Y0053750D03*
X0260722Y0053750D03*
X0269778Y0053750D03*
X0269778Y0164250D03*
X0260722Y0164250D03*
X0167778Y0164250D03*
X0158722Y0164250D03*
X0065778Y0164250D03*
X0056722Y0164250D03*
X0056722Y0274750D03*
X0065778Y0274750D03*
X0158722Y0274750D03*
X0167778Y0274750D03*
X0260722Y0274750D03*
X0269778Y0274750D03*
M02*
