G75*
%MOIN*%
%OFA0B0*%
%FSLAX25Y25*%
%IPPOS*%
%LPD*%
%AMOC8*
5,1,8,0,0,1.08239X$1,22.5*
%
%ADD10C,0.08200*%
%ADD11C,0.05524*%
%ADD12R,0.04737X0.05131*%
%ADD13C,0.01421*%
%ADD14R,0.04343X0.03950*%
%ADD15R,0.04343X0.04737*%
%ADD16C,0.06800*%
%ADD17R,0.05800X0.03300*%
%ADD18R,0.03280X0.04068*%
%ADD19C,0.03300*%
%ADD20C,0.04737*%
%ADD21C,0.05000*%
%ADD22C,0.06706*%
D10*
X0033750Y0033750D03*
X0033750Y0043750D03*
X0033750Y0053750D03*
X0033750Y0063750D03*
X0033750Y0073750D03*
X0033750Y0083750D03*
X0033750Y0144250D03*
X0033750Y0154250D03*
X0033750Y0164250D03*
X0033750Y0174250D03*
X0033750Y0184250D03*
X0033750Y0194250D03*
X0033750Y0254750D03*
X0033750Y0264750D03*
X0033750Y0274750D03*
X0033750Y0284750D03*
X0033750Y0294750D03*
X0033750Y0304750D03*
X0123750Y0304750D03*
X0123750Y0294750D03*
X0123750Y0284750D03*
X0123750Y0274750D03*
X0123750Y0264750D03*
X0123750Y0254750D03*
X0135750Y0254750D03*
X0135750Y0264750D03*
X0135750Y0274750D03*
X0135750Y0284750D03*
X0135750Y0294750D03*
X0135750Y0304750D03*
X0123750Y0314750D03*
X0225750Y0314750D03*
X0225750Y0304750D03*
X0225750Y0294750D03*
X0225750Y0284750D03*
X0225750Y0274750D03*
X0225750Y0264750D03*
X0225750Y0254750D03*
X0237750Y0254750D03*
X0237750Y0264750D03*
X0237750Y0274750D03*
X0237750Y0284750D03*
X0237750Y0294750D03*
X0237750Y0304750D03*
X0327750Y0304750D03*
X0327750Y0294750D03*
X0327750Y0284750D03*
X0327750Y0274750D03*
X0327750Y0264750D03*
X0327750Y0254750D03*
X0327750Y0204250D03*
X0327750Y0194250D03*
X0327750Y0184250D03*
X0327750Y0174250D03*
X0327750Y0164250D03*
X0327750Y0154250D03*
X0327750Y0144250D03*
X0327750Y0093750D03*
X0327750Y0083750D03*
X0327750Y0073750D03*
X0327750Y0063750D03*
X0327750Y0053750D03*
X0327750Y0043750D03*
X0327750Y0033750D03*
X0237750Y0033750D03*
X0237750Y0043750D03*
X0237750Y0053750D03*
X0237750Y0063750D03*
X0237750Y0073750D03*
X0237750Y0083750D03*
X0225750Y0083750D03*
X0225750Y0073750D03*
X0225750Y0063750D03*
X0225750Y0053750D03*
X0225750Y0043750D03*
X0225750Y0033750D03*
X0225750Y0093750D03*
X0225750Y0144250D03*
X0225750Y0154250D03*
X0225750Y0164250D03*
X0225750Y0174250D03*
X0225750Y0184250D03*
X0225750Y0194250D03*
X0225750Y0204250D03*
X0237750Y0194250D03*
X0237750Y0184250D03*
X0237750Y0174250D03*
X0237750Y0164250D03*
X0237750Y0154250D03*
X0237750Y0144250D03*
X0135750Y0144250D03*
X0135750Y0154250D03*
X0135750Y0164250D03*
X0135750Y0174250D03*
X0135750Y0184250D03*
X0135750Y0194250D03*
X0123750Y0194250D03*
X0123750Y0184250D03*
X0123750Y0174250D03*
X0123750Y0164250D03*
X0123750Y0154250D03*
X0123750Y0144250D03*
X0123750Y0093750D03*
X0123750Y0083750D03*
X0123750Y0073750D03*
X0123750Y0063750D03*
X0123750Y0053750D03*
X0123750Y0043750D03*
X0123750Y0033750D03*
X0135750Y0033750D03*
X0135750Y0043750D03*
X0135750Y0053750D03*
X0135750Y0063750D03*
X0135750Y0073750D03*
X0135750Y0083750D03*
X0123750Y0204250D03*
X0327750Y0314750D03*
D11*
X0305250Y0254750D03*
X0295250Y0254750D03*
X0203250Y0254750D03*
X0193250Y0254750D03*
X0101250Y0254750D03*
X0091250Y0254750D03*
X0091250Y0144250D03*
X0101250Y0144250D03*
X0193250Y0144250D03*
X0203250Y0144250D03*
X0295250Y0144250D03*
X0305250Y0144250D03*
X0305250Y0033750D03*
X0295250Y0033750D03*
X0203250Y0033750D03*
X0193250Y0033750D03*
X0101250Y0033750D03*
X0091250Y0033750D03*
D12*
X0094250Y0045404D03*
X0100250Y0045404D03*
X0100250Y0052096D03*
X0094250Y0052096D03*
X0092250Y0087904D03*
X0098750Y0087904D03*
X0098750Y0094596D03*
X0092250Y0094596D03*
X0085250Y0094596D03*
X0085250Y0087904D03*
X0072750Y0087904D03*
X0065750Y0087904D03*
X0059250Y0087904D03*
X0059250Y0094596D03*
X0065750Y0094596D03*
X0072750Y0094596D03*
X0094250Y0155904D03*
X0100250Y0155904D03*
X0100250Y0162596D03*
X0094250Y0162596D03*
X0092250Y0198404D03*
X0098750Y0198404D03*
X0098750Y0205096D03*
X0092250Y0205096D03*
X0085250Y0205096D03*
X0085250Y0198404D03*
X0072750Y0198404D03*
X0065750Y0198404D03*
X0059250Y0198404D03*
X0059250Y0205096D03*
X0065750Y0205096D03*
X0072750Y0205096D03*
X0094250Y0266404D03*
X0094250Y0273096D03*
X0100250Y0273096D03*
X0100250Y0266404D03*
X0098750Y0308904D03*
X0092250Y0308904D03*
X0092250Y0315596D03*
X0098750Y0315596D03*
X0085250Y0315596D03*
X0085250Y0308904D03*
X0072750Y0308904D03*
X0072750Y0315596D03*
X0065750Y0315596D03*
X0065750Y0308904D03*
X0059250Y0308904D03*
X0059250Y0315596D03*
X0161250Y0315596D03*
X0161250Y0308904D03*
X0167750Y0308904D03*
X0167750Y0315596D03*
X0174750Y0315596D03*
X0174750Y0308904D03*
X0187250Y0308904D03*
X0187250Y0315596D03*
X0194250Y0315596D03*
X0194250Y0308904D03*
X0200750Y0308904D03*
X0200750Y0315596D03*
X0202250Y0273096D03*
X0196250Y0273096D03*
X0196250Y0266404D03*
X0202250Y0266404D03*
X0200750Y0205096D03*
X0194250Y0205096D03*
X0194250Y0198404D03*
X0200750Y0198404D03*
X0187250Y0198404D03*
X0187250Y0205096D03*
X0174750Y0205096D03*
X0174750Y0198404D03*
X0167750Y0198404D03*
X0161250Y0198404D03*
X0161250Y0205096D03*
X0167750Y0205096D03*
X0196250Y0162596D03*
X0202250Y0162596D03*
X0202250Y0155904D03*
X0196250Y0155904D03*
X0194250Y0094596D03*
X0200750Y0094596D03*
X0200750Y0087904D03*
X0194250Y0087904D03*
X0187250Y0087904D03*
X0187250Y0094596D03*
X0174750Y0094596D03*
X0174750Y0087904D03*
X0167750Y0087904D03*
X0161250Y0087904D03*
X0161250Y0094596D03*
X0167750Y0094596D03*
X0196250Y0052096D03*
X0202250Y0052096D03*
X0202250Y0045404D03*
X0196250Y0045404D03*
X0263250Y0087904D03*
X0269750Y0087904D03*
X0269750Y0094596D03*
X0263250Y0094596D03*
X0276750Y0094596D03*
X0276750Y0087904D03*
X0289250Y0087904D03*
X0296250Y0087904D03*
X0302750Y0087904D03*
X0302750Y0094596D03*
X0296250Y0094596D03*
X0289250Y0094596D03*
X0298250Y0052096D03*
X0304250Y0052096D03*
X0304250Y0045404D03*
X0298250Y0045404D03*
X0298250Y0155904D03*
X0304250Y0155904D03*
X0304250Y0162596D03*
X0298250Y0162596D03*
X0296250Y0198404D03*
X0289250Y0198404D03*
X0289250Y0205096D03*
X0296250Y0205096D03*
X0302750Y0205096D03*
X0302750Y0198404D03*
X0276750Y0198404D03*
X0276750Y0205096D03*
X0269750Y0205096D03*
X0263250Y0205096D03*
X0263250Y0198404D03*
X0269750Y0198404D03*
X0298250Y0266404D03*
X0304250Y0266404D03*
X0304250Y0273096D03*
X0298250Y0273096D03*
X0296250Y0308904D03*
X0296250Y0315596D03*
X0289250Y0315596D03*
X0289250Y0308904D03*
X0276750Y0308904D03*
X0276750Y0315596D03*
X0269750Y0315596D03*
X0263250Y0315596D03*
X0263250Y0308904D03*
X0269750Y0308904D03*
X0302750Y0308904D03*
X0302750Y0315596D03*
D13*
X0284408Y0314045D02*
X0281092Y0314045D01*
X0281092Y0317361D01*
X0284408Y0317361D01*
X0284408Y0314045D01*
X0284408Y0315465D02*
X0281092Y0315465D01*
X0281092Y0316885D02*
X0284408Y0316885D01*
X0284408Y0307139D02*
X0281092Y0307139D01*
X0281092Y0310455D01*
X0284408Y0310455D01*
X0284408Y0307139D01*
X0284408Y0308559D02*
X0281092Y0308559D01*
X0281092Y0309979D02*
X0284408Y0309979D01*
X0182408Y0307139D02*
X0179092Y0307139D01*
X0179092Y0310455D01*
X0182408Y0310455D01*
X0182408Y0307139D01*
X0182408Y0308559D02*
X0179092Y0308559D01*
X0179092Y0309979D02*
X0182408Y0309979D01*
X0182408Y0314045D02*
X0179092Y0314045D01*
X0179092Y0317361D01*
X0182408Y0317361D01*
X0182408Y0314045D01*
X0182408Y0315465D02*
X0179092Y0315465D01*
X0179092Y0316885D02*
X0182408Y0316885D01*
X0080408Y0314045D02*
X0077092Y0314045D01*
X0077092Y0317361D01*
X0080408Y0317361D01*
X0080408Y0314045D01*
X0080408Y0315465D02*
X0077092Y0315465D01*
X0077092Y0316885D02*
X0080408Y0316885D01*
X0080408Y0307139D02*
X0077092Y0307139D01*
X0077092Y0310455D01*
X0080408Y0310455D01*
X0080408Y0307139D01*
X0080408Y0308559D02*
X0077092Y0308559D01*
X0077092Y0309979D02*
X0080408Y0309979D01*
X0080408Y0203545D02*
X0077092Y0203545D01*
X0077092Y0206861D01*
X0080408Y0206861D01*
X0080408Y0203545D01*
X0080408Y0204965D02*
X0077092Y0204965D01*
X0077092Y0206385D02*
X0080408Y0206385D01*
X0080408Y0196639D02*
X0077092Y0196639D01*
X0077092Y0199955D01*
X0080408Y0199955D01*
X0080408Y0196639D01*
X0080408Y0198059D02*
X0077092Y0198059D01*
X0077092Y0199479D02*
X0080408Y0199479D01*
X0179092Y0196639D02*
X0182408Y0196639D01*
X0179092Y0196639D02*
X0179092Y0199955D01*
X0182408Y0199955D01*
X0182408Y0196639D01*
X0182408Y0198059D02*
X0179092Y0198059D01*
X0179092Y0199479D02*
X0182408Y0199479D01*
X0182408Y0203545D02*
X0179092Y0203545D01*
X0179092Y0206861D01*
X0182408Y0206861D01*
X0182408Y0203545D01*
X0182408Y0204965D02*
X0179092Y0204965D01*
X0179092Y0206385D02*
X0182408Y0206385D01*
X0281092Y0203545D02*
X0284408Y0203545D01*
X0281092Y0203545D02*
X0281092Y0206861D01*
X0284408Y0206861D01*
X0284408Y0203545D01*
X0284408Y0204965D02*
X0281092Y0204965D01*
X0281092Y0206385D02*
X0284408Y0206385D01*
X0284408Y0196639D02*
X0281092Y0196639D01*
X0281092Y0199955D01*
X0284408Y0199955D01*
X0284408Y0196639D01*
X0284408Y0198059D02*
X0281092Y0198059D01*
X0281092Y0199479D02*
X0284408Y0199479D01*
X0284408Y0093045D02*
X0281092Y0093045D01*
X0281092Y0096361D01*
X0284408Y0096361D01*
X0284408Y0093045D01*
X0284408Y0094465D02*
X0281092Y0094465D01*
X0281092Y0095885D02*
X0284408Y0095885D01*
X0284408Y0086139D02*
X0281092Y0086139D01*
X0281092Y0089455D01*
X0284408Y0089455D01*
X0284408Y0086139D01*
X0284408Y0087559D02*
X0281092Y0087559D01*
X0281092Y0088979D02*
X0284408Y0088979D01*
X0182408Y0086139D02*
X0179092Y0086139D01*
X0179092Y0089455D01*
X0182408Y0089455D01*
X0182408Y0086139D01*
X0182408Y0087559D02*
X0179092Y0087559D01*
X0179092Y0088979D02*
X0182408Y0088979D01*
X0182408Y0093045D02*
X0179092Y0093045D01*
X0179092Y0096361D01*
X0182408Y0096361D01*
X0182408Y0093045D01*
X0182408Y0094465D02*
X0179092Y0094465D01*
X0179092Y0095885D02*
X0182408Y0095885D01*
X0080408Y0093045D02*
X0077092Y0093045D01*
X0077092Y0096361D01*
X0080408Y0096361D01*
X0080408Y0093045D01*
X0080408Y0094465D02*
X0077092Y0094465D01*
X0077092Y0095885D02*
X0080408Y0095885D01*
X0080408Y0086139D02*
X0077092Y0086139D01*
X0077092Y0089455D01*
X0080408Y0089455D01*
X0080408Y0086139D01*
X0080408Y0087559D02*
X0077092Y0087559D01*
X0077092Y0088979D02*
X0080408Y0088979D01*
D14*
X0087687Y0052490D03*
X0087687Y0045010D03*
X0079419Y0048750D03*
X0181419Y0048750D03*
X0189687Y0045010D03*
X0189687Y0052490D03*
X0283419Y0048750D03*
X0291687Y0045010D03*
X0291687Y0052490D03*
X0291687Y0155510D03*
X0283419Y0159250D03*
X0291687Y0162990D03*
X0189687Y0162990D03*
X0189687Y0155510D03*
X0181419Y0159250D03*
X0087687Y0155510D03*
X0087687Y0162990D03*
X0079419Y0159250D03*
X0087687Y0266010D03*
X0087687Y0273490D03*
X0079419Y0269750D03*
X0181419Y0269750D03*
X0189687Y0266010D03*
X0189687Y0273490D03*
X0283419Y0269750D03*
X0291687Y0266010D03*
X0291687Y0273490D03*
D15*
X0292179Y0286600D03*
X0292179Y0292900D03*
X0308321Y0292900D03*
X0308321Y0286600D03*
X0273321Y0286600D03*
X0273321Y0292900D03*
X0257179Y0292900D03*
X0257179Y0286600D03*
X0206321Y0286600D03*
X0206321Y0292900D03*
X0190179Y0292900D03*
X0190179Y0286600D03*
X0171321Y0286600D03*
X0171321Y0292900D03*
X0155179Y0292900D03*
X0155179Y0286600D03*
X0104321Y0286600D03*
X0104321Y0292900D03*
X0088179Y0292900D03*
X0088179Y0286600D03*
X0069321Y0286600D03*
X0069321Y0292900D03*
X0053179Y0292900D03*
X0053179Y0286600D03*
X0053179Y0182400D03*
X0053179Y0176100D03*
X0069321Y0176100D03*
X0069321Y0182400D03*
X0088179Y0182400D03*
X0088179Y0176100D03*
X0104321Y0176100D03*
X0104321Y0182400D03*
X0155179Y0182400D03*
X0155179Y0176100D03*
X0171321Y0176100D03*
X0171321Y0182400D03*
X0190179Y0182400D03*
X0190179Y0176100D03*
X0206321Y0176100D03*
X0206321Y0182400D03*
X0257179Y0182400D03*
X0257179Y0176100D03*
X0273321Y0176100D03*
X0273321Y0182400D03*
X0292179Y0182400D03*
X0292179Y0176100D03*
X0308321Y0176100D03*
X0308321Y0182400D03*
X0308321Y0071900D03*
X0308321Y0065600D03*
X0292179Y0065600D03*
X0292179Y0071900D03*
X0273321Y0071900D03*
X0273321Y0065600D03*
X0257179Y0065600D03*
X0257179Y0071900D03*
X0206321Y0071900D03*
X0206321Y0065600D03*
X0190179Y0065600D03*
X0190179Y0071900D03*
X0171321Y0071900D03*
X0171321Y0065600D03*
X0155179Y0065600D03*
X0155179Y0071900D03*
X0104321Y0071900D03*
X0104321Y0065600D03*
X0088179Y0065600D03*
X0088179Y0071900D03*
X0069321Y0071900D03*
X0069321Y0065600D03*
X0053179Y0065600D03*
X0053179Y0071900D03*
D16*
X0056250Y0035250D03*
X0066250Y0035250D03*
X0076250Y0035250D03*
X0158250Y0035250D03*
X0168250Y0035250D03*
X0178250Y0035250D03*
X0260250Y0035250D03*
X0270250Y0035250D03*
X0280250Y0035250D03*
X0280250Y0145750D03*
X0270250Y0145750D03*
X0260250Y0145750D03*
X0178250Y0145750D03*
X0168250Y0145750D03*
X0158250Y0145750D03*
X0076250Y0145750D03*
X0066250Y0145750D03*
X0056250Y0145750D03*
X0056250Y0256250D03*
X0066250Y0256250D03*
X0076250Y0256250D03*
X0158250Y0256250D03*
X0168250Y0256250D03*
X0178250Y0256250D03*
X0260250Y0256250D03*
X0270250Y0256250D03*
X0280250Y0256250D03*
D17*
X0311750Y0205850D03*
X0311750Y0202650D03*
X0209750Y0202650D03*
X0209750Y0205850D03*
X0107750Y0205850D03*
X0107750Y0202650D03*
X0107750Y0095350D03*
X0107750Y0092150D03*
X0209750Y0092150D03*
X0209750Y0095350D03*
X0311750Y0095350D03*
X0311750Y0092150D03*
X0311750Y0313150D03*
X0311750Y0316350D03*
X0209750Y0316350D03*
X0209750Y0313150D03*
X0107750Y0313150D03*
X0107750Y0316350D03*
D18*
X0065778Y0274750D03*
X0056722Y0274750D03*
X0158722Y0274750D03*
X0167778Y0274750D03*
X0260722Y0274750D03*
X0269778Y0274750D03*
X0269778Y0164250D03*
X0260722Y0164250D03*
X0167778Y0164250D03*
X0158722Y0164250D03*
X0065778Y0164250D03*
X0056722Y0164250D03*
X0056722Y0053750D03*
X0065778Y0053750D03*
X0158722Y0053750D03*
X0167778Y0053750D03*
X0260722Y0053750D03*
X0269778Y0053750D03*
D19*
X0243250Y0038750D03*
X0227750Y0105750D03*
X0243250Y0149250D03*
X0227750Y0216250D03*
X0243250Y0259750D03*
X0227750Y0326750D03*
X0141250Y0259750D03*
X0125750Y0216250D03*
X0141250Y0149250D03*
X0125750Y0105750D03*
X0141250Y0038750D03*
X0039250Y0038750D03*
X0039250Y0149250D03*
X0039250Y0259750D03*
X0125750Y0326750D03*
X0329750Y0326750D03*
X0329750Y0216250D03*
X0329750Y0105750D03*
D20*
X0305750Y0366500D03*
X0055750Y0366500D03*
D21*
X0052185Y0020500D02*
X0052187Y0020619D01*
X0052193Y0020738D01*
X0052203Y0020857D01*
X0052217Y0020975D01*
X0052235Y0021093D01*
X0052256Y0021210D01*
X0052282Y0021326D01*
X0052312Y0021442D01*
X0052345Y0021556D01*
X0052382Y0021669D01*
X0052423Y0021781D01*
X0052468Y0021892D01*
X0052516Y0022001D01*
X0052568Y0022108D01*
X0052624Y0022213D01*
X0052683Y0022317D01*
X0052745Y0022418D01*
X0052811Y0022518D01*
X0052880Y0022615D01*
X0052952Y0022709D01*
X0053028Y0022802D01*
X0053106Y0022891D01*
X0053187Y0022978D01*
X0053272Y0023063D01*
X0053359Y0023144D01*
X0053448Y0023222D01*
X0053541Y0023298D01*
X0053635Y0023370D01*
X0053732Y0023439D01*
X0053832Y0023505D01*
X0053933Y0023567D01*
X0054037Y0023626D01*
X0054142Y0023682D01*
X0054249Y0023734D01*
X0054358Y0023782D01*
X0054469Y0023827D01*
X0054581Y0023868D01*
X0054694Y0023905D01*
X0054808Y0023938D01*
X0054924Y0023968D01*
X0055040Y0023994D01*
X0055157Y0024015D01*
X0055275Y0024033D01*
X0055393Y0024047D01*
X0055512Y0024057D01*
X0055631Y0024063D01*
X0055750Y0024065D01*
X0055869Y0024063D01*
X0055988Y0024057D01*
X0056107Y0024047D01*
X0056225Y0024033D01*
X0056343Y0024015D01*
X0056460Y0023994D01*
X0056576Y0023968D01*
X0056692Y0023938D01*
X0056806Y0023905D01*
X0056919Y0023868D01*
X0057031Y0023827D01*
X0057142Y0023782D01*
X0057251Y0023734D01*
X0057358Y0023682D01*
X0057463Y0023626D01*
X0057567Y0023567D01*
X0057668Y0023505D01*
X0057768Y0023439D01*
X0057865Y0023370D01*
X0057959Y0023298D01*
X0058052Y0023222D01*
X0058141Y0023144D01*
X0058228Y0023063D01*
X0058313Y0022978D01*
X0058394Y0022891D01*
X0058472Y0022802D01*
X0058548Y0022709D01*
X0058620Y0022615D01*
X0058689Y0022518D01*
X0058755Y0022418D01*
X0058817Y0022317D01*
X0058876Y0022213D01*
X0058932Y0022108D01*
X0058984Y0022001D01*
X0059032Y0021892D01*
X0059077Y0021781D01*
X0059118Y0021669D01*
X0059155Y0021556D01*
X0059188Y0021442D01*
X0059218Y0021326D01*
X0059244Y0021210D01*
X0059265Y0021093D01*
X0059283Y0020975D01*
X0059297Y0020857D01*
X0059307Y0020738D01*
X0059313Y0020619D01*
X0059315Y0020500D01*
X0059313Y0020381D01*
X0059307Y0020262D01*
X0059297Y0020143D01*
X0059283Y0020025D01*
X0059265Y0019907D01*
X0059244Y0019790D01*
X0059218Y0019674D01*
X0059188Y0019558D01*
X0059155Y0019444D01*
X0059118Y0019331D01*
X0059077Y0019219D01*
X0059032Y0019108D01*
X0058984Y0018999D01*
X0058932Y0018892D01*
X0058876Y0018787D01*
X0058817Y0018683D01*
X0058755Y0018582D01*
X0058689Y0018482D01*
X0058620Y0018385D01*
X0058548Y0018291D01*
X0058472Y0018198D01*
X0058394Y0018109D01*
X0058313Y0018022D01*
X0058228Y0017937D01*
X0058141Y0017856D01*
X0058052Y0017778D01*
X0057959Y0017702D01*
X0057865Y0017630D01*
X0057768Y0017561D01*
X0057668Y0017495D01*
X0057567Y0017433D01*
X0057463Y0017374D01*
X0057358Y0017318D01*
X0057251Y0017266D01*
X0057142Y0017218D01*
X0057031Y0017173D01*
X0056919Y0017132D01*
X0056806Y0017095D01*
X0056692Y0017062D01*
X0056576Y0017032D01*
X0056460Y0017006D01*
X0056343Y0016985D01*
X0056225Y0016967D01*
X0056107Y0016953D01*
X0055988Y0016943D01*
X0055869Y0016937D01*
X0055750Y0016935D01*
X0055631Y0016937D01*
X0055512Y0016943D01*
X0055393Y0016953D01*
X0055275Y0016967D01*
X0055157Y0016985D01*
X0055040Y0017006D01*
X0054924Y0017032D01*
X0054808Y0017062D01*
X0054694Y0017095D01*
X0054581Y0017132D01*
X0054469Y0017173D01*
X0054358Y0017218D01*
X0054249Y0017266D01*
X0054142Y0017318D01*
X0054037Y0017374D01*
X0053933Y0017433D01*
X0053832Y0017495D01*
X0053732Y0017561D01*
X0053635Y0017630D01*
X0053541Y0017702D01*
X0053448Y0017778D01*
X0053359Y0017856D01*
X0053272Y0017937D01*
X0053187Y0018022D01*
X0053106Y0018109D01*
X0053028Y0018198D01*
X0052952Y0018291D01*
X0052880Y0018385D01*
X0052811Y0018482D01*
X0052745Y0018582D01*
X0052683Y0018683D01*
X0052624Y0018787D01*
X0052568Y0018892D01*
X0052516Y0018999D01*
X0052468Y0019108D01*
X0052423Y0019219D01*
X0052382Y0019331D01*
X0052345Y0019444D01*
X0052312Y0019558D01*
X0052282Y0019674D01*
X0052256Y0019790D01*
X0052235Y0019907D01*
X0052217Y0020025D01*
X0052203Y0020143D01*
X0052193Y0020262D01*
X0052187Y0020381D01*
X0052185Y0020500D01*
D22*
X0055750Y0020500D03*
M02*
