G75*
%MOIN*%
%OFA0B0*%
%FSLAX25Y25*%
%IPPOS*%
%LPD*%
%AMOC8*
5,1,8,0,0,1.08239X$1,22.5*
%
%ADD10R,0.11036X0.05131*%
%ADD11C,0.08200*%
%ADD12C,0.05524*%
%ADD13C,0.06800*%
%ADD14C,0.03300*%
%ADD15C,0.04737*%
%ADD16C,0.05000*%
%ADD17C,0.06706*%
D10*
X0047254Y0047411D03*
X0047254Y0055285D03*
X0047254Y0063159D03*
X0047254Y0071033D03*
X0047254Y0078907D03*
X0047254Y0086781D03*
X0047254Y0094656D03*
X0047254Y0102530D03*
X0047254Y0157911D03*
X0047254Y0165785D03*
X0047254Y0173659D03*
X0047254Y0181533D03*
X0047254Y0189407D03*
X0047254Y0197281D03*
X0047254Y0205156D03*
X0047254Y0213030D03*
X0047254Y0268411D03*
X0047254Y0276285D03*
X0047254Y0284159D03*
X0047254Y0292033D03*
X0047254Y0299907D03*
X0047254Y0307781D03*
X0047254Y0315656D03*
X0047254Y0323530D03*
X0110246Y0323530D03*
X0110246Y0315656D03*
X0110246Y0307781D03*
X0110246Y0299907D03*
X0110246Y0292033D03*
X0110246Y0284159D03*
X0110246Y0276285D03*
X0110246Y0268411D03*
X0149254Y0268411D03*
X0149254Y0276285D03*
X0149254Y0284159D03*
X0149254Y0292033D03*
X0149254Y0299907D03*
X0149254Y0307781D03*
X0149254Y0315656D03*
X0149254Y0323530D03*
X0212246Y0323530D03*
X0212246Y0315656D03*
X0212246Y0307781D03*
X0212246Y0299907D03*
X0212246Y0292033D03*
X0212246Y0284159D03*
X0212246Y0276285D03*
X0212246Y0268411D03*
X0251254Y0268411D03*
X0251254Y0276285D03*
X0251254Y0284159D03*
X0251254Y0292033D03*
X0251254Y0299907D03*
X0251254Y0307781D03*
X0251254Y0315656D03*
X0251254Y0323530D03*
X0314246Y0323530D03*
X0314246Y0315656D03*
X0314246Y0307781D03*
X0314246Y0299907D03*
X0314246Y0292033D03*
X0314246Y0284159D03*
X0314246Y0276285D03*
X0314246Y0268411D03*
X0314246Y0213030D03*
X0314246Y0205156D03*
X0314246Y0197281D03*
X0314246Y0189407D03*
X0314246Y0181533D03*
X0314246Y0173659D03*
X0314246Y0165785D03*
X0314246Y0157911D03*
X0314246Y0102530D03*
X0314246Y0094656D03*
X0314246Y0086781D03*
X0314246Y0078907D03*
X0314246Y0071033D03*
X0314246Y0063159D03*
X0314246Y0055285D03*
X0314246Y0047411D03*
X0251254Y0047411D03*
X0251254Y0055285D03*
X0251254Y0063159D03*
X0251254Y0071033D03*
X0251254Y0078907D03*
X0251254Y0086781D03*
X0251254Y0094656D03*
X0251254Y0102530D03*
X0212246Y0102530D03*
X0212246Y0094656D03*
X0212246Y0086781D03*
X0212246Y0078907D03*
X0212246Y0071033D03*
X0212246Y0063159D03*
X0212246Y0055285D03*
X0212246Y0047411D03*
X0149254Y0047411D03*
X0149254Y0055285D03*
X0149254Y0063159D03*
X0149254Y0071033D03*
X0149254Y0078907D03*
X0149254Y0086781D03*
X0149254Y0094656D03*
X0149254Y0102530D03*
X0110246Y0102530D03*
X0110246Y0094656D03*
X0110246Y0086781D03*
X0110246Y0078907D03*
X0110246Y0071033D03*
X0110246Y0063159D03*
X0110246Y0055285D03*
X0110246Y0047411D03*
X0110246Y0157911D03*
X0110246Y0165785D03*
X0110246Y0173659D03*
X0110246Y0181533D03*
X0110246Y0189407D03*
X0110246Y0197281D03*
X0110246Y0205156D03*
X0110246Y0213030D03*
X0149254Y0213030D03*
X0149254Y0205156D03*
X0149254Y0197281D03*
X0149254Y0189407D03*
X0149254Y0181533D03*
X0149254Y0173659D03*
X0149254Y0165785D03*
X0149254Y0157911D03*
X0212246Y0157911D03*
X0212246Y0165785D03*
X0212246Y0173659D03*
X0212246Y0181533D03*
X0212246Y0189407D03*
X0212246Y0197281D03*
X0212246Y0205156D03*
X0212246Y0213030D03*
X0251254Y0213030D03*
X0251254Y0205156D03*
X0251254Y0197281D03*
X0251254Y0189407D03*
X0251254Y0181533D03*
X0251254Y0173659D03*
X0251254Y0165785D03*
X0251254Y0157911D03*
D11*
X0033750Y0033750D03*
X0033750Y0043750D03*
X0033750Y0053750D03*
X0033750Y0063750D03*
X0033750Y0073750D03*
X0033750Y0083750D03*
X0033750Y0144250D03*
X0033750Y0154250D03*
X0033750Y0164250D03*
X0033750Y0174250D03*
X0033750Y0184250D03*
X0033750Y0194250D03*
X0033750Y0254750D03*
X0033750Y0264750D03*
X0033750Y0274750D03*
X0033750Y0284750D03*
X0033750Y0294750D03*
X0033750Y0304750D03*
X0123750Y0304750D03*
X0123750Y0294750D03*
X0123750Y0284750D03*
X0123750Y0274750D03*
X0123750Y0264750D03*
X0123750Y0254750D03*
X0135750Y0254750D03*
X0135750Y0264750D03*
X0135750Y0274750D03*
X0135750Y0284750D03*
X0135750Y0294750D03*
X0135750Y0304750D03*
X0123750Y0314750D03*
X0225750Y0314750D03*
X0225750Y0304750D03*
X0225750Y0294750D03*
X0225750Y0284750D03*
X0225750Y0274750D03*
X0225750Y0264750D03*
X0225750Y0254750D03*
X0237750Y0254750D03*
X0237750Y0264750D03*
X0237750Y0274750D03*
X0237750Y0284750D03*
X0237750Y0294750D03*
X0237750Y0304750D03*
X0327750Y0304750D03*
X0327750Y0294750D03*
X0327750Y0284750D03*
X0327750Y0274750D03*
X0327750Y0264750D03*
X0327750Y0254750D03*
X0327750Y0204250D03*
X0327750Y0194250D03*
X0327750Y0184250D03*
X0327750Y0174250D03*
X0327750Y0164250D03*
X0327750Y0154250D03*
X0327750Y0144250D03*
X0327750Y0093750D03*
X0327750Y0083750D03*
X0327750Y0073750D03*
X0327750Y0063750D03*
X0327750Y0053750D03*
X0327750Y0043750D03*
X0327750Y0033750D03*
X0237750Y0033750D03*
X0237750Y0043750D03*
X0237750Y0053750D03*
X0237750Y0063750D03*
X0237750Y0073750D03*
X0237750Y0083750D03*
X0225750Y0083750D03*
X0225750Y0073750D03*
X0225750Y0063750D03*
X0225750Y0053750D03*
X0225750Y0043750D03*
X0225750Y0033750D03*
X0225750Y0093750D03*
X0225750Y0144250D03*
X0225750Y0154250D03*
X0225750Y0164250D03*
X0225750Y0174250D03*
X0225750Y0184250D03*
X0225750Y0194250D03*
X0225750Y0204250D03*
X0237750Y0194250D03*
X0237750Y0184250D03*
X0237750Y0174250D03*
X0237750Y0164250D03*
X0237750Y0154250D03*
X0237750Y0144250D03*
X0135750Y0144250D03*
X0135750Y0154250D03*
X0135750Y0164250D03*
X0135750Y0174250D03*
X0135750Y0184250D03*
X0135750Y0194250D03*
X0123750Y0194250D03*
X0123750Y0184250D03*
X0123750Y0174250D03*
X0123750Y0164250D03*
X0123750Y0154250D03*
X0123750Y0144250D03*
X0123750Y0093750D03*
X0123750Y0083750D03*
X0123750Y0073750D03*
X0123750Y0063750D03*
X0123750Y0053750D03*
X0123750Y0043750D03*
X0123750Y0033750D03*
X0135750Y0033750D03*
X0135750Y0043750D03*
X0135750Y0053750D03*
X0135750Y0063750D03*
X0135750Y0073750D03*
X0135750Y0083750D03*
X0123750Y0204250D03*
X0327750Y0314750D03*
D12*
X0305250Y0254750D03*
X0295250Y0254750D03*
X0203250Y0254750D03*
X0193250Y0254750D03*
X0101250Y0254750D03*
X0091250Y0254750D03*
X0091250Y0144250D03*
X0101250Y0144250D03*
X0193250Y0144250D03*
X0203250Y0144250D03*
X0295250Y0144250D03*
X0305250Y0144250D03*
X0305250Y0033750D03*
X0295250Y0033750D03*
X0203250Y0033750D03*
X0193250Y0033750D03*
X0101250Y0033750D03*
X0091250Y0033750D03*
D13*
X0076250Y0035250D03*
X0066250Y0035250D03*
X0056250Y0035250D03*
X0158250Y0035250D03*
X0168250Y0035250D03*
X0178250Y0035250D03*
X0260250Y0035250D03*
X0270250Y0035250D03*
X0280250Y0035250D03*
X0280250Y0145750D03*
X0270250Y0145750D03*
X0260250Y0145750D03*
X0178250Y0145750D03*
X0168250Y0145750D03*
X0158250Y0145750D03*
X0076250Y0145750D03*
X0066250Y0145750D03*
X0056250Y0145750D03*
X0056250Y0256250D03*
X0066250Y0256250D03*
X0076250Y0256250D03*
X0158250Y0256250D03*
X0168250Y0256250D03*
X0178250Y0256250D03*
X0260250Y0256250D03*
X0270250Y0256250D03*
X0280250Y0256250D03*
D14*
X0243250Y0259750D03*
X0227750Y0216250D03*
X0243250Y0149250D03*
X0227750Y0105750D03*
X0243250Y0038750D03*
X0329750Y0105750D03*
X0329750Y0216250D03*
X0329750Y0326750D03*
X0227750Y0326750D03*
X0141250Y0259750D03*
X0125750Y0216250D03*
X0141250Y0149250D03*
X0125750Y0105750D03*
X0141250Y0038750D03*
X0039250Y0038750D03*
X0039250Y0149250D03*
X0039250Y0259750D03*
X0125750Y0326750D03*
D15*
X0055750Y0366500D03*
X0305750Y0366500D03*
D16*
X0052185Y0020500D02*
X0052187Y0020619D01*
X0052193Y0020738D01*
X0052203Y0020857D01*
X0052217Y0020975D01*
X0052235Y0021093D01*
X0052256Y0021210D01*
X0052282Y0021326D01*
X0052312Y0021442D01*
X0052345Y0021556D01*
X0052382Y0021669D01*
X0052423Y0021781D01*
X0052468Y0021892D01*
X0052516Y0022001D01*
X0052568Y0022108D01*
X0052624Y0022213D01*
X0052683Y0022317D01*
X0052745Y0022418D01*
X0052811Y0022518D01*
X0052880Y0022615D01*
X0052952Y0022709D01*
X0053028Y0022802D01*
X0053106Y0022891D01*
X0053187Y0022978D01*
X0053272Y0023063D01*
X0053359Y0023144D01*
X0053448Y0023222D01*
X0053541Y0023298D01*
X0053635Y0023370D01*
X0053732Y0023439D01*
X0053832Y0023505D01*
X0053933Y0023567D01*
X0054037Y0023626D01*
X0054142Y0023682D01*
X0054249Y0023734D01*
X0054358Y0023782D01*
X0054469Y0023827D01*
X0054581Y0023868D01*
X0054694Y0023905D01*
X0054808Y0023938D01*
X0054924Y0023968D01*
X0055040Y0023994D01*
X0055157Y0024015D01*
X0055275Y0024033D01*
X0055393Y0024047D01*
X0055512Y0024057D01*
X0055631Y0024063D01*
X0055750Y0024065D01*
X0055869Y0024063D01*
X0055988Y0024057D01*
X0056107Y0024047D01*
X0056225Y0024033D01*
X0056343Y0024015D01*
X0056460Y0023994D01*
X0056576Y0023968D01*
X0056692Y0023938D01*
X0056806Y0023905D01*
X0056919Y0023868D01*
X0057031Y0023827D01*
X0057142Y0023782D01*
X0057251Y0023734D01*
X0057358Y0023682D01*
X0057463Y0023626D01*
X0057567Y0023567D01*
X0057668Y0023505D01*
X0057768Y0023439D01*
X0057865Y0023370D01*
X0057959Y0023298D01*
X0058052Y0023222D01*
X0058141Y0023144D01*
X0058228Y0023063D01*
X0058313Y0022978D01*
X0058394Y0022891D01*
X0058472Y0022802D01*
X0058548Y0022709D01*
X0058620Y0022615D01*
X0058689Y0022518D01*
X0058755Y0022418D01*
X0058817Y0022317D01*
X0058876Y0022213D01*
X0058932Y0022108D01*
X0058984Y0022001D01*
X0059032Y0021892D01*
X0059077Y0021781D01*
X0059118Y0021669D01*
X0059155Y0021556D01*
X0059188Y0021442D01*
X0059218Y0021326D01*
X0059244Y0021210D01*
X0059265Y0021093D01*
X0059283Y0020975D01*
X0059297Y0020857D01*
X0059307Y0020738D01*
X0059313Y0020619D01*
X0059315Y0020500D01*
X0059313Y0020381D01*
X0059307Y0020262D01*
X0059297Y0020143D01*
X0059283Y0020025D01*
X0059265Y0019907D01*
X0059244Y0019790D01*
X0059218Y0019674D01*
X0059188Y0019558D01*
X0059155Y0019444D01*
X0059118Y0019331D01*
X0059077Y0019219D01*
X0059032Y0019108D01*
X0058984Y0018999D01*
X0058932Y0018892D01*
X0058876Y0018787D01*
X0058817Y0018683D01*
X0058755Y0018582D01*
X0058689Y0018482D01*
X0058620Y0018385D01*
X0058548Y0018291D01*
X0058472Y0018198D01*
X0058394Y0018109D01*
X0058313Y0018022D01*
X0058228Y0017937D01*
X0058141Y0017856D01*
X0058052Y0017778D01*
X0057959Y0017702D01*
X0057865Y0017630D01*
X0057768Y0017561D01*
X0057668Y0017495D01*
X0057567Y0017433D01*
X0057463Y0017374D01*
X0057358Y0017318D01*
X0057251Y0017266D01*
X0057142Y0017218D01*
X0057031Y0017173D01*
X0056919Y0017132D01*
X0056806Y0017095D01*
X0056692Y0017062D01*
X0056576Y0017032D01*
X0056460Y0017006D01*
X0056343Y0016985D01*
X0056225Y0016967D01*
X0056107Y0016953D01*
X0055988Y0016943D01*
X0055869Y0016937D01*
X0055750Y0016935D01*
X0055631Y0016937D01*
X0055512Y0016943D01*
X0055393Y0016953D01*
X0055275Y0016967D01*
X0055157Y0016985D01*
X0055040Y0017006D01*
X0054924Y0017032D01*
X0054808Y0017062D01*
X0054694Y0017095D01*
X0054581Y0017132D01*
X0054469Y0017173D01*
X0054358Y0017218D01*
X0054249Y0017266D01*
X0054142Y0017318D01*
X0054037Y0017374D01*
X0053933Y0017433D01*
X0053832Y0017495D01*
X0053732Y0017561D01*
X0053635Y0017630D01*
X0053541Y0017702D01*
X0053448Y0017778D01*
X0053359Y0017856D01*
X0053272Y0017937D01*
X0053187Y0018022D01*
X0053106Y0018109D01*
X0053028Y0018198D01*
X0052952Y0018291D01*
X0052880Y0018385D01*
X0052811Y0018482D01*
X0052745Y0018582D01*
X0052683Y0018683D01*
X0052624Y0018787D01*
X0052568Y0018892D01*
X0052516Y0018999D01*
X0052468Y0019108D01*
X0052423Y0019219D01*
X0052382Y0019331D01*
X0052345Y0019444D01*
X0052312Y0019558D01*
X0052282Y0019674D01*
X0052256Y0019790D01*
X0052235Y0019907D01*
X0052217Y0020025D01*
X0052203Y0020143D01*
X0052193Y0020262D01*
X0052187Y0020381D01*
X0052185Y0020500D01*
D17*
X0055750Y0020500D03*
M02*
