G75*
%MOIN*%
%OFA0B0*%
%FSLAX25Y25*%
%IPPOS*%
%LPD*%
%AMOC8*
5,1,8,0,0,1.08239X$1,22.5*
%
%ADD10R,0.10236X0.04331*%
D10*
X0121596Y0047411D03*
X0121596Y0055285D03*
X0121596Y0063159D03*
X0121596Y0071033D03*
X0121596Y0078907D03*
X0121596Y0086781D03*
X0121596Y0094656D03*
X0121596Y0102530D03*
X0121596Y0157911D03*
X0121596Y0165785D03*
X0121596Y0173659D03*
X0121596Y0181533D03*
X0121596Y0189407D03*
X0121596Y0197281D03*
X0121596Y0205156D03*
X0121596Y0213030D03*
X0121596Y0268411D03*
X0121596Y0276285D03*
X0121596Y0284159D03*
X0121596Y0292033D03*
X0121596Y0299907D03*
X0121596Y0307781D03*
X0121596Y0315656D03*
X0121596Y0323530D03*
X0184588Y0323530D03*
X0184588Y0315656D03*
X0184588Y0307781D03*
X0184588Y0299907D03*
X0184588Y0292033D03*
X0184588Y0284159D03*
X0184588Y0276285D03*
X0184588Y0268411D03*
X0223596Y0268411D03*
X0223596Y0276285D03*
X0223596Y0284159D03*
X0223596Y0292033D03*
X0223596Y0299907D03*
X0223596Y0307781D03*
X0223596Y0315656D03*
X0223596Y0323530D03*
X0286588Y0323530D03*
X0286588Y0315656D03*
X0286588Y0307781D03*
X0286588Y0299907D03*
X0286588Y0292033D03*
X0286588Y0284159D03*
X0286588Y0276285D03*
X0286588Y0268411D03*
X0325596Y0268411D03*
X0325596Y0276285D03*
X0325596Y0284159D03*
X0325596Y0292033D03*
X0325596Y0299907D03*
X0325596Y0307781D03*
X0325596Y0315656D03*
X0325596Y0323530D03*
X0388588Y0323530D03*
X0388588Y0315656D03*
X0388588Y0307781D03*
X0388588Y0299907D03*
X0388588Y0292033D03*
X0388588Y0284159D03*
X0388588Y0276285D03*
X0388588Y0268411D03*
X0388588Y0213030D03*
X0388588Y0205156D03*
X0388588Y0197281D03*
X0388588Y0189407D03*
X0388588Y0181533D03*
X0388588Y0173659D03*
X0388588Y0165785D03*
X0388588Y0157911D03*
X0388588Y0102530D03*
X0388588Y0094656D03*
X0388588Y0086781D03*
X0388588Y0078907D03*
X0388588Y0071033D03*
X0388588Y0063159D03*
X0388588Y0055285D03*
X0388588Y0047411D03*
X0325596Y0047411D03*
X0325596Y0055285D03*
X0325596Y0063159D03*
X0325596Y0071033D03*
X0325596Y0078907D03*
X0325596Y0086781D03*
X0325596Y0094656D03*
X0325596Y0102530D03*
X0286588Y0102530D03*
X0286588Y0094656D03*
X0286588Y0086781D03*
X0286588Y0078907D03*
X0286588Y0071033D03*
X0286588Y0063159D03*
X0286588Y0055285D03*
X0286588Y0047411D03*
X0223596Y0047411D03*
X0223596Y0055285D03*
X0223596Y0063159D03*
X0223596Y0071033D03*
X0223596Y0078907D03*
X0223596Y0086781D03*
X0223596Y0094656D03*
X0223596Y0102530D03*
X0184588Y0102530D03*
X0184588Y0094656D03*
X0184588Y0086781D03*
X0184588Y0078907D03*
X0184588Y0071033D03*
X0184588Y0063159D03*
X0184588Y0055285D03*
X0184588Y0047411D03*
X0184588Y0157911D03*
X0184588Y0165785D03*
X0184588Y0173659D03*
X0184588Y0181533D03*
X0184588Y0189407D03*
X0184588Y0197281D03*
X0184588Y0205156D03*
X0184588Y0213030D03*
X0223596Y0213030D03*
X0223596Y0205156D03*
X0223596Y0197281D03*
X0223596Y0189407D03*
X0223596Y0181533D03*
X0223596Y0173659D03*
X0223596Y0165785D03*
X0223596Y0157911D03*
X0286588Y0157911D03*
X0286588Y0165785D03*
X0286588Y0173659D03*
X0286588Y0181533D03*
X0286588Y0189407D03*
X0286588Y0197281D03*
X0286588Y0205156D03*
X0286588Y0213030D03*
X0325596Y0213030D03*
X0325596Y0205156D03*
X0325596Y0197281D03*
X0325596Y0189407D03*
X0325596Y0181533D03*
X0325596Y0173659D03*
X0325596Y0165785D03*
X0325596Y0157911D03*
M02*
